<svg width="96" height="24" viewBox="0 0 96 24" fill="none" xmlns="http://www.w3.org/2000/svg">
<path fill-rule="evenodd" clip-rule="evenodd" d="M62.2009 0H61.7749V24H62.2009V0ZM68.7951 10.3773H68.0433L69.7324 5.68359H70.5506L72.2397 10.3773H71.488L71.0589 9.13515H69.2249L68.7951 10.3773ZM70.161 6.53617L70.853 8.53926H69.4312L70.1243 6.53617H70.161ZM74.2818 11.7708C74.0022 11.7708 73.7615 11.7341 73.5599 11.6608C73.3597 11.5874 73.1962 11.4904 73.0694 11.3697C72.9426 11.249 72.8478 11.1168 72.7852 10.9732L73.3742 10.7303C73.4155 10.7975 73.4705 10.8686 73.5392 10.9434C73.6095 11.0198 73.7042 11.0848 73.8234 11.1382C73.9441 11.1917 74.0992 11.2185 74.2887 11.2185C74.5484 11.2185 74.7631 11.155 74.9327 11.0282C75.1023 10.9029 75.1871 10.7028 75.1871 10.4278V9.73562H75.1435C75.1023 9.81048 75.0427 9.89375 74.9648 9.98543C74.8884 10.0771 74.7829 10.1566 74.6485 10.2238C74.514 10.291 74.3391 10.3246 74.1236 10.3246C73.8456 10.3246 73.595 10.2597 73.3719 10.1298C73.1504 9.99842 72.9747 9.80514 72.8448 9.54997C72.7164 9.29329 72.6523 8.97777 72.6523 8.60343C72.6523 8.2291 72.7157 7.90823 72.8425 7.64085C72.9708 7.37346 73.1466 7.16872 73.3696 7.02663C73.5927 6.883 73.8456 6.81119 74.1282 6.81119C74.3467 6.81119 74.5232 6.84786 74.6577 6.9212C74.7921 6.99301 74.8968 7.07705 74.9716 7.17331C75.048 7.26957 75.1069 7.35437 75.1481 7.42771H75.1985V6.85703H75.8701V10.4553C75.8701 10.7578 75.7998 11.0061 75.6592 11.2001C75.5186 11.3942 75.3284 11.5378 75.0885 11.631C74.8502 11.7242 74.5813 11.7708 74.2818 11.7708ZM74.2749 9.75624C74.472 9.75624 74.6386 9.71041 74.7745 9.61873C74.9121 9.52553 75.0159 9.3926 75.0862 9.21995C75.1581 9.04576 75.194 8.8372 75.194 8.59427C75.194 8.35744 75.1588 8.14888 75.0885 7.96859C75.0182 7.78829 74.9151 7.64772 74.7791 7.54688C74.6431 7.44451 74.4751 7.39333 74.2749 7.39333C74.0686 7.39333 73.8968 7.4468 73.7592 7.55376C73.6217 7.65918 73.5178 7.80281 73.4475 7.98463C73.3788 8.16645 73.3444 8.36966 73.3444 8.59427C73.3444 8.82498 73.3796 9.02743 73.4498 9.20161C73.5201 9.37579 73.624 9.51178 73.7615 9.60956C73.9006 9.70735 74.0717 9.75624 74.2749 9.75624ZM76.7891 6.85703V10.3773H77.4744V8.22757C77.4744 8.07478 77.511 7.93879 77.5844 7.81961C77.6577 7.69891 77.757 7.60494 77.8823 7.53771C78.0091 7.46896 78.1535 7.43458 78.3155 7.43458C78.3858 7.43458 78.456 7.43993 78.5263 7.45062C78.5966 7.45979 78.6455 7.46819 78.673 7.47583V6.82036C78.6394 6.81578 78.5928 6.81196 78.5332 6.8089C78.4751 6.80585 78.4247 6.80432 78.3819 6.80432C78.1757 6.80432 77.9908 6.85932 77.8273 6.96933C77.6654 7.07781 77.5523 7.22678 77.4881 7.41625H77.4514V6.85703H76.7891ZM80.6228 10.4484C80.2928 10.4484 80.0048 10.3728 79.7588 10.2215C79.5128 10.0702 79.3218 9.85861 79.1858 9.58664C79.0498 9.31468 78.9818 8.99687 78.9818 8.63323C78.9818 8.26806 79.0498 7.94872 79.1858 7.67523C79.3218 7.40173 79.5128 7.18935 79.7588 7.03809C80.0048 6.88682 80.2928 6.81119 80.6228 6.81119C80.9528 6.81119 81.2409 6.88682 81.4868 7.03809C81.7328 7.18935 81.9238 7.40173 82.0598 7.67523C82.1958 7.94872 82.2638 8.26806 82.2638 8.63323C82.2638 8.99687 82.1958 9.31468 82.0598 9.58664C81.9238 9.85861 81.7328 10.0702 81.4868 10.2215C81.2409 10.3728 80.9528 10.4484 80.6228 10.4484ZM80.6251 9.87313C80.839 9.87313 81.0163 9.8166 81.1568 9.70353C81.2974 9.59046 81.4013 9.43996 81.4685 9.25203C81.5373 9.0641 81.5716 8.85707 81.5716 8.63094C81.5716 8.40633 81.5373 8.20006 81.4685 8.01213C81.4013 7.82267 81.2974 7.67064 81.1568 7.55605C81.0163 7.44146 80.839 7.38416 80.6251 7.38416C80.4097 7.38416 80.2309 7.44146 80.0888 7.55605C79.9482 7.67064 79.8436 7.82267 79.7748 8.01213C79.7076 8.20006 79.674 8.40633 79.674 8.63094C79.674 8.85707 79.7076 9.0641 79.7748 9.25203C79.8436 9.43996 79.9482 9.59046 80.0888 9.70353C80.2309 9.8166 80.4097 9.87313 80.6251 9.87313ZM84.672 7.40708V6.85703H83.95V6.01362H83.2648V6.85703H82.7491V7.40708H83.2648V9.4858C83.2648 9.69818 83.3129 9.87466 83.4092 10.0152C83.5054 10.1558 83.6315 10.2597 83.7873 10.3269C83.9432 10.3941 84.1112 10.4262 84.2915 10.4232C84.4015 10.4216 84.4932 10.4125 84.5666 10.3957C84.6399 10.3804 84.6964 10.3651 84.7361 10.3498L84.6124 9.78374C84.5895 9.78833 84.5574 9.79444 84.5161 9.80208C84.4749 9.80972 84.4267 9.81354 84.3717 9.81354C84.2969 9.81354 84.2273 9.80208 84.1632 9.77916C84.1005 9.75471 84.0493 9.70964 84.0096 9.64394C83.9699 9.57671 83.95 9.47663 83.95 9.34371V7.40708H84.672ZM86.9094 10.4484C86.5626 10.4484 86.2639 10.3743 86.0133 10.2261C85.7642 10.0763 85.5717 9.86625 85.4357 9.59581C85.3013 9.32384 85.234 9.00527 85.234 8.6401C85.234 8.27952 85.3013 7.96171 85.4357 7.68669C85.5717 7.41166 85.7612 7.19699 86.0041 7.04267C86.2486 6.88835 86.5343 6.81119 86.8613 6.81119C87.0599 6.81119 87.2524 6.84404 87.4388 6.90974C87.6252 6.97544 87.7925 7.07858 87.9408 7.21915C88.089 7.35971 88.2058 7.5423 88.2914 7.7669C88.377 7.98998 88.4197 8.26118 88.4197 8.58051V8.82345H85.9176C85.9229 9.03803 85.964 9.22215 86.0408 9.37579C86.1248 9.54081 86.2417 9.66686 86.3914 9.75395C86.5412 9.83951 86.7161 9.88229 86.9163 9.88229C87.0462 9.88229 87.1646 9.86396 87.2715 9.82729C87.3785 9.78909 87.4709 9.73256 87.5488 9.65769C87.6268 9.58282 87.6863 9.49039 87.7276 9.38038L88.3762 9.49726C88.3243 9.68825 88.2311 9.85556 88.0966 9.99918C87.9637 10.1413 87.7964 10.252 87.5947 10.3315C87.3945 10.4094 87.1661 10.4484 86.9094 10.4484ZM86.0316 7.88608C85.9646 8.01742 85.927 8.15875 85.9188 8.31007H87.7482C87.7482 8.12978 87.7116 7.97011 87.6382 7.83107C87.5649 7.69051 87.4617 7.57973 87.3288 7.49875C87.1974 7.41777 87.0431 7.37728 86.8659 7.37728C86.6733 7.37728 86.5053 7.42465 86.3616 7.51938C86.2196 7.61258 86.1095 7.73482 86.0316 7.88608ZM89.7828 10.2169C90.0288 10.3712 90.3222 10.4484 90.6629 10.4484C90.941 10.4484 91.1832 10.3972 91.3894 10.2948C91.5972 10.1925 91.763 10.0519 91.8868 9.87313C92.0105 9.69436 92.0846 9.49115 92.1091 9.26349H91.4421C91.4131 9.39031 91.3619 9.49879 91.2886 9.58894C91.2168 9.67908 91.1274 9.7486 91.0204 9.7975C90.915 9.84486 90.7974 9.86854 90.6675 9.86854C90.4735 9.86854 90.3046 9.81736 90.161 9.71499C90.0189 9.61262 89.9089 9.46823 89.831 9.28183C89.753 9.09542 89.7141 8.87387 89.7141 8.61718C89.7141 8.36661 89.7538 8.14964 89.8333 7.96629C89.9127 7.78142 90.0235 7.63932 90.1656 7.54001C90.3092 7.43916 90.4765 7.38874 90.6675 7.38874C90.886 7.38874 91.0602 7.44833 91.19 7.56751C91.3214 7.68669 91.4055 7.82878 91.4421 7.9938H92.1091C92.0846 7.75697 92.0075 7.54994 91.8776 7.3727C91.7493 7.19546 91.5804 7.05795 91.3711 6.96016C91.1618 6.86085 90.9234 6.81119 90.656 6.81119C90.3245 6.81119 90.0365 6.88835 89.792 7.04267C89.5475 7.19699 89.3581 7.41166 89.2236 7.68669C89.0892 7.96018 89.0219 8.2757 89.0219 8.63323C89.0219 8.98617 89.0876 9.2994 89.219 9.57289C89.3504 9.84639 89.5384 10.0611 89.7828 10.2169ZM93.5272 8.28716V10.3773H92.8419V5.68359H93.518V7.43H93.5616C93.6441 7.24054 93.7701 7.09004 93.9397 6.9785C94.1093 6.86696 94.3309 6.81119 94.6043 6.81119C94.8458 6.81119 95.0566 6.86085 95.2369 6.96016C95.4187 7.05948 95.5593 7.20769 95.6586 7.40479C95.7595 7.60036 95.8099 7.84483 95.8099 8.13818V10.3773H95.1246V8.22069C95.1246 7.96247 95.0581 7.76232 94.9252 7.62022C94.7923 7.4766 94.6074 7.40479 94.3706 7.40479C94.2086 7.40479 94.0635 7.43916 93.9351 7.50792C93.8083 7.57668 93.7082 7.67752 93.6349 7.81045C93.5631 7.94185 93.5272 8.10075 93.5272 8.28716ZM68.3986 13.4942V18.188H70.1977C70.5613 18.188 70.86 18.133 71.0938 18.023C71.3276 17.9114 71.5002 17.7609 71.6118 17.5715C71.7248 17.3805 71.7814 17.1651 71.7814 16.9252C71.7814 16.6822 71.7325 16.476 71.6347 16.3064C71.5369 16.1368 71.4131 16.0061 71.2634 15.9145C71.1152 15.8213 70.9632 15.7708 70.8073 15.7632V15.7174C70.9509 15.6807 71.0823 15.6226 71.2015 15.5432C71.3222 15.4622 71.4185 15.3552 71.4903 15.2223C71.5621 15.0879 71.598 14.9228 71.598 14.7273C71.598 14.495 71.5438 14.2865 71.4353 14.1016C71.3268 13.9152 71.1633 13.7677 70.9448 13.6593C70.7263 13.5493 70.4505 13.4942 70.1175 13.4942H68.3986ZM70.1289 17.5806H69.1068V16.0772H70.1541C70.3436 16.0772 70.5071 16.1139 70.6446 16.1872C70.7836 16.2605 70.8906 16.3591 70.9655 16.4828C71.0403 16.6066 71.0778 16.7426 71.0778 16.8908C71.0778 17.0879 71.0044 17.2521 70.8577 17.3835C70.7111 17.5149 70.4681 17.5806 70.1289 17.5806ZM70.0556 15.5248H69.1068V14.097H70.0739C70.3551 14.097 70.5636 14.1627 70.6996 14.2941C70.8356 14.4255 70.9036 14.5882 70.9036 14.7823C70.9036 14.9335 70.8654 15.0649 70.789 15.1765C70.7141 15.2865 70.6125 15.372 70.4842 15.4332C70.3573 15.4943 70.2145 15.5248 70.0556 15.5248ZM74.7963 16.7281V14.6677H75.4839V18.188H74.8101V17.5784H74.7734C74.6924 17.7663 74.5625 17.9229 74.3838 18.0482C74.2065 18.1719 73.9858 18.2338 73.7214 18.2338C73.4953 18.2338 73.2951 18.1842 73.121 18.0849C72.9483 17.984 72.8123 17.835 72.713 17.6379C72.6152 17.4408 72.5663 17.1971 72.5663 16.9068V14.6677H73.2516V16.8243C73.2516 17.0642 73.3181 17.2552 73.451 17.3973C73.5839 17.5394 73.7566 17.6104 73.9689 17.6104C74.0973 17.6104 74.2249 17.5784 74.3517 17.5142C74.48 17.45 74.5862 17.353 74.6703 17.2231C74.7558 17.0932 74.7978 16.9282 74.7963 16.7281ZM78.4215 15.6371L79.0426 15.5271C78.9723 15.2521 78.8279 15.0329 78.6094 14.8694C78.3909 14.7044 78.0914 14.6218 77.711 14.6218C77.4467 14.6218 77.2121 14.6662 77.0074 14.7548C76.8027 14.8419 76.6422 14.9633 76.5261 15.1192C76.41 15.275 76.3519 15.4568 76.3519 15.6646C76.3519 15.9152 76.4298 16.1223 76.5857 16.2857C76.7431 16.4492 76.986 16.5684 77.3145 16.6433L77.9104 16.7739C78.0785 16.8121 78.203 16.8686 78.284 16.9435C78.3665 17.0184 78.4077 17.1108 78.4077 17.2208C78.4077 17.3568 78.3405 17.4722 78.206 17.5669C78.0716 17.6601 77.8921 17.7067 77.6674 17.7067C77.4612 17.7067 77.2939 17.6632 77.1655 17.5761C77.0372 17.4874 76.9524 17.3568 76.9111 17.1842L76.2488 17.285C76.3053 17.5967 76.4581 17.8373 76.7072 18.0069C76.9562 18.175 77.2778 18.259 77.672 18.259C77.9562 18.259 78.206 18.2124 78.4215 18.1192C78.6384 18.026 78.8073 17.8977 78.928 17.7342C79.0502 17.5692 79.1113 17.3813 79.1113 17.1704C79.1113 16.9214 79.0319 16.7189 78.873 16.5631C78.7141 16.4072 78.4727 16.2919 78.1487 16.217L77.5895 16.0886C77.3955 16.0428 77.2549 15.984 77.1678 15.9122C77.0807 15.8404 77.0372 15.7456 77.0372 15.628C77.0372 15.492 77.1021 15.3812 77.232 15.2957C77.3619 15.2086 77.5238 15.165 77.7179 15.165C77.86 15.165 77.9784 15.1879 78.0731 15.2338C78.1678 15.2796 78.2427 15.3384 78.2977 15.4102C78.3542 15.4821 78.3955 15.5577 78.4215 15.6371ZM79.8648 18.188V14.6677H80.55V18.188H79.8648ZM80.2109 14.1245C80.0917 14.1245 79.9893 14.0848 79.9037 14.0053C79.8197 13.9244 79.7777 13.8281 79.7777 13.7166C79.7777 13.6035 79.8197 13.5072 79.9037 13.4278C79.9893 13.3468 80.0917 13.3063 80.2109 13.3063C80.33 13.3063 80.4316 13.3468 80.5157 13.4278C80.6012 13.5072 80.644 13.6035 80.644 13.7166C80.644 13.8281 80.6012 13.9244 80.5157 14.0053C80.4316 14.0848 80.33 14.1245 80.2109 14.1245ZM82.1572 18.188V16.0978C82.1572 15.9114 82.1924 15.7525 82.2626 15.6211C82.3345 15.4882 82.4315 15.3873 82.5537 15.3186C82.6775 15.2498 82.8188 15.2154 82.9777 15.2154C83.21 15.2154 83.3925 15.288 83.5255 15.4332C83.6584 15.5768 83.7249 15.7762 83.7249 16.0313V18.188H84.4101V15.9488C84.4101 15.6585 84.3605 15.4148 84.2612 15.2177C84.1618 15.0206 84.022 14.8724 83.8417 14.7731C83.6614 14.6723 83.4514 14.6218 83.2115 14.6218C82.9471 14.6218 82.7279 14.6784 82.5537 14.7914C82.3811 14.9045 82.2542 15.0542 82.1733 15.2406H82.1297V14.6677H81.4719V18.188H82.1572ZM86.8464 18.259C86.4995 18.259 86.2008 18.1849 85.9503 18.0367C85.7012 17.887 85.5087 17.6769 85.3727 17.4065C85.2383 17.1345 85.171 16.8159 85.171 16.4508C85.171 16.0902 85.2383 15.7724 85.3727 15.4973C85.5087 15.2223 85.6982 15.0076 85.9411 14.8533C86.1856 14.699 86.4713 14.6218 86.7983 14.6218C86.9969 14.6218 87.1894 14.6547 87.3758 14.7204C87.5622 14.7861 87.7295 14.8892 87.8777 15.0298C88.0259 15.1704 88.1428 15.353 88.2284 15.5776C88.3139 15.8006 88.3567 16.0718 88.3567 16.3912V16.6341H85.8546C85.8599 16.8487 85.9009 17.0328 85.9778 17.1864C86.0618 17.3515 86.1787 17.4775 86.3284 17.5646C86.4781 17.6502 86.6531 17.6929 86.8533 17.6929C86.9831 17.6929 87.1015 17.6746 87.2085 17.6379C87.3155 17.5997 87.4079 17.5432 87.4858 17.4683C87.5637 17.3935 87.6233 17.301 87.6646 17.191L88.3132 17.3079C88.2612 17.4989 88.168 17.6662 88.0336 17.8098C87.9006 17.9519 87.7333 18.0627 87.5316 18.1422C87.3315 18.2201 87.1031 18.259 86.8464 18.259ZM85.9686 15.6967C85.9016 15.8281 85.864 15.9694 85.8557 16.1207H87.6852C87.6852 15.9404 87.6485 15.7808 87.5752 15.6417C87.5019 15.5012 87.3987 15.3904 87.2658 15.3094C87.1344 15.2284 86.9801 15.1879 86.8028 15.1879C86.6103 15.1879 86.4422 15.2353 86.2986 15.33C86.1565 15.4232 86.0465 15.5455 85.9686 15.6967ZM91.1339 15.6371L91.755 15.5271C91.6847 15.2521 91.5403 15.0329 91.3218 14.8694C91.1033 14.7044 90.8039 14.6218 90.4234 14.6218C90.1591 14.6218 89.9245 14.6662 89.7198 14.7548C89.5151 14.8419 89.3546 14.9633 89.2385 15.1192C89.1224 15.275 89.0643 15.4568 89.0643 15.6646C89.0643 15.9152 89.1423 16.1223 89.2981 16.2857C89.4555 16.4492 89.6984 16.5684 90.0269 16.6433L90.6228 16.7739C90.7909 16.8121 90.9154 16.8686 90.9964 16.9435C91.0789 17.0184 91.1201 17.1108 91.1201 17.2208C91.1201 17.3568 91.0529 17.4722 90.9185 17.5669C90.784 17.6601 90.6045 17.7067 90.3799 17.7067C90.1736 17.7067 90.0063 17.6632 89.8779 17.5761C89.7496 17.4874 89.6648 17.3568 89.6235 17.1842L88.9612 17.285C89.0177 17.5967 89.1705 17.8373 89.4196 18.0069C89.6686 18.175 89.9902 18.259 90.3845 18.259C90.6686 18.259 90.9184 18.2124 91.1339 18.1192C91.3509 18.026 91.5197 17.8977 91.6404 17.7342C91.7626 17.5692 91.8237 17.3813 91.8237 17.1704C91.8237 16.9214 91.7443 16.7189 91.5854 16.5631C91.4265 16.4072 91.1851 16.2919 90.8612 16.217L90.3019 16.0886C90.1079 16.0428 89.9673 15.984 89.8802 15.9122C89.7932 15.8404 89.7496 15.7456 89.7496 15.628C89.7496 15.492 89.8145 15.3812 89.9444 15.2957C90.0743 15.2086 90.2362 15.165 90.4303 15.165C90.5724 15.165 90.6908 15.1879 90.7855 15.2338C90.8803 15.2796 90.9551 15.3384 91.0101 15.4102C91.0667 15.4821 91.1079 15.5577 91.1339 15.6371ZM95.2151 15.5271L94.594 15.6371C94.5681 15.5577 94.5268 15.4821 94.4703 15.4102C94.4153 15.3384 94.3404 15.2796 94.2457 15.2338C94.1509 15.1879 94.0325 15.165 93.8904 15.165C93.6964 15.165 93.5344 15.2086 93.4046 15.2957C93.2747 15.3812 93.2097 15.492 93.2097 15.628C93.2097 15.7456 93.2533 15.8404 93.3404 15.9122C93.4275 15.984 93.568 16.0428 93.7621 16.0886L94.3213 16.217C94.6452 16.2919 94.8866 16.4072 95.0455 16.5631C95.2044 16.7189 95.2839 16.9214 95.2839 17.1704C95.2839 17.3813 95.2228 17.5692 95.1005 17.7342C94.9798 17.8977 94.811 18.026 94.594 18.1192C94.3786 18.2124 94.1288 18.259 93.8446 18.259C93.4504 18.259 93.1288 18.175 92.8797 18.0069C92.6307 17.8373 92.4779 17.5967 92.4213 17.285L93.0837 17.1842C93.1249 17.3568 93.2097 17.4874 93.3381 17.5761C93.4664 17.6632 93.6338 17.7067 93.84 17.7067C94.0646 17.7067 94.2441 17.6601 94.3786 17.5669C94.5131 17.4722 94.5803 17.3568 94.5803 17.2208C94.5803 17.1108 94.539 17.0184 94.4565 16.9435C94.3755 16.8686 94.251 16.8121 94.083 16.7739L93.4871 16.6433C93.1586 16.5684 92.9156 16.4492 92.7583 16.2857C92.6024 16.1223 92.5245 15.9152 92.5245 15.6646C92.5245 15.4568 92.5825 15.275 92.6987 15.1192C92.8148 14.9633 92.9752 14.8419 93.18 14.7548C93.3847 14.6662 93.6192 14.6218 93.8836 14.6218C94.264 14.6218 94.5635 14.7044 94.782 14.8694C95.0005 15.0329 95.1449 15.2521 95.2151 15.5271ZM10.1294 0.132563C10.5896 0.083282 11.0421 0.0498546 11.4808 0.0288939C11.8618 0.0106893 12.2323 0.00188993 12.5886 0.0002754C12.6706 -9.61036e-05 12.7518 -8.74676e-05 12.8322 0.00027539L12.8322 5.17292C12.8322 11.372 8.87317 12.4216 4.818 13.4967C4.10906 13.6847 3.39719 13.8734 2.70302 14.0906C2.24274 14.2346 1.79024 14.3911 1.35155 14.5681C0.882916 14.7572 0.430029 14.9698 0.000223004 15.2157L0.000175086 16.4897C0.828393 16.0159 1.74231 15.6657 2.68945 15.3688V19.3924H0V12.8972H7.2935e-05L0.000113395 13.4222L0.000209726 14.8419C0.000260402 14.0503 0.000190193 13.128 0.000117651 12.2039L0.000113273 12.1481L0 10.0431C0 2.76023 5.46441 0.63206 10.1294 0.132563ZM5.87067 4.09688C7.11429 3.41746 8.61652 3.03913 10.1294 2.85324L10.1294 5.17292C10.1294 6.9504 9.73354 7.90128 9.32749 8.46279C8.90956 9.04073 8.26554 9.50501 7.23225 9.92859C6.33588 10.296 5.36184 10.555 4.18315 10.8683L4.18313 10.8683L4.18212 10.8686L4.18208 10.8686C3.92185 10.9378 3.65165 11.0096 3.37011 11.0859C3.15331 11.1446 2.9304 11.2058 2.70284 11.2706L2.70279 10.0431C2.70279 8.27073 3.09843 7.04412 3.62701 6.17051C4.1581 5.29276 4.91631 4.61828 5.87067 4.09688ZM24.6243 4.49498H27.3263V14.2397C27.3263 15.3078 27.0738 16.2473 26.5688 17.0582C26.0687 17.869 25.3647 18.5026 24.4568 18.959C23.5488 19.4106 22.4879 19.6364 21.2741 19.6364C20.0554 19.6364 18.9921 19.4106 18.0841 18.959C17.1762 18.5026 16.4722 17.869 15.972 17.0582C15.4719 16.2473 15.2219 15.3078 15.2219 14.2397V4.49498H17.9239V14.0139C17.9239 14.6354 18.0598 15.1889 18.3317 15.6744C18.6085 16.1599 18.9969 16.5411 19.497 16.8178C19.9971 17.0897 20.5895 17.2257 21.2741 17.2257C21.9587 17.2257 22.551 17.0897 23.0511 16.8178C23.5561 16.5411 23.9445 16.1599 24.2164 15.6744C24.4883 15.1889 24.6243 14.6354 24.6243 14.0139V4.49498ZM29.6969 19.4106V4.49498H35.2903C36.4362 4.49498 37.3975 4.69404 38.1744 5.09218C38.9561 5.49032 39.546 6.04868 39.9442 6.76728C40.3471 7.48101 40.5486 8.3137 40.5486 9.26535C40.5486 10.2219 40.3447 11.0521 39.9369 11.7561C39.5339 12.4553 38.9391 12.9967 38.1525 13.3803C38.0604 13.4246 37.9658 13.4664 37.8687 13.5055L41.0949 19.4106H38.0797L35.1484 13.9483H32.3989V19.4106H29.6969ZM34.8897 11.7052H32.3989V6.75271H34.8752C35.5501 6.75271 36.1011 6.85224 36.5284 7.05131C36.9557 7.24553 37.2737 7.53199 37.4825 7.91071C37.6913 8.28457 37.7957 8.73612 37.7957 9.26535C37.7957 9.79458 37.6913 10.2413 37.4825 10.6054C37.2786 10.9647 36.963 11.239 36.5357 11.4284C36.1084 11.6129 35.5598 11.7052 34.8897 11.7052ZM42.0672 19.4106H44.9512L46.1847 15.7327H51.7923L53.0281 19.4106H55.9122L50.6538 4.49498H47.3182L42.0672 19.4106ZM51.0631 13.5623L49.0443 7.55384H48.9277L46.9126 13.5623H51.0631Z" fill="#5C5F62"/>
</svg>
