<svg width="128" height="32" viewBox="0 0 128 32" fill="none" xmlns="http://www.w3.org/2000/svg">
<path fill-rule="evenodd" clip-rule="evenodd" d="M82.9345 0H82.3665V32H82.9345V0ZM91.7267 13.8365H90.7244L92.9766 7.57812H94.0675L96.3196 13.8365H95.3173L94.7452 12.1802H92.2999L91.7267 13.8365ZM93.548 8.71489L94.4707 11.3857H92.5749L93.4991 8.71489H93.548ZM99.0424 15.6944C98.6696 15.6944 98.3487 15.6455 98.0798 15.5477C97.8129 15.4499 97.5949 15.3206 97.4258 15.1596C97.2568 14.9987 97.1305 14.8225 97.0469 14.631L97.8323 14.307C97.8873 14.3967 97.9606 14.4914 98.0523 14.5912C98.146 14.6931 98.2723 14.7797 98.4312 14.851C98.5922 14.9223 98.7989 14.9579 99.0515 14.9579C99.3979 14.9579 99.6841 14.8734 99.9102 14.7043C100.136 14.5373 100.249 14.2704 100.249 13.9037V12.9808H100.191C100.136 13.0806 100.057 13.1917 99.953 13.3139C99.8512 13.4361 99.7106 13.5421 99.5313 13.6317C99.352 13.7213 99.1188 13.7662 98.8315 13.7662C98.4608 13.7662 98.1266 13.6796 97.8292 13.5064C97.5338 13.3312 97.2995 13.0735 97.1264 12.7333C96.9553 12.391 96.8697 11.9704 96.8697 11.4712C96.8697 10.9721 96.9542 10.5443 97.1233 10.1878C97.2944 9.83129 97.5287 9.5583 97.8262 9.36884C98.1236 9.17734 98.4608 9.08159 98.8376 9.08159C99.129 9.08159 99.3643 9.13048 99.5435 9.22827C99.7228 9.32402 99.8624 9.43607 99.9622 9.56441C100.064 9.69275 100.142 9.80582 100.197 9.90361H100.265V9.14271H101.16V13.9403C101.16 14.3437 101.066 14.6748 100.879 14.9335C100.691 15.1922 100.438 15.3837 100.118 15.508C99.8002 15.6323 99.4417 15.6944 99.0424 15.6944ZM99.0332 13.0083C99.296 13.0083 99.5181 12.9472 99.6994 12.825C99.8827 12.7007 100.021 12.5235 100.115 12.2933C100.211 12.061 100.259 11.7829 100.259 11.459C100.259 11.1433 100.212 10.8652 100.118 10.6248C100.024 10.3844 99.8868 10.197 99.7055 10.0625C99.5242 9.92602 99.3001 9.85777 99.0332 9.85777C98.7582 9.85777 98.529 9.92907 98.3457 10.0717C98.1623 10.2122 98.0238 10.4037 97.9301 10.6462C97.8384 10.8886 97.7925 11.1596 97.7925 11.459C97.7925 11.7666 97.8394 12.0366 97.9331 12.2688C98.0268 12.5011 98.1654 12.6824 98.3487 12.8127C98.5341 12.9431 98.7623 13.0083 99.0332 13.0083ZM102.385 9.14271V13.8365H103.299V10.9701C103.299 10.7664 103.348 10.5851 103.446 10.4262C103.544 10.2652 103.676 10.1399 103.843 10.0503C104.012 9.95861 104.205 9.91277 104.421 9.91277C104.514 9.91277 104.608 9.9199 104.702 9.93417C104.795 9.94639 104.861 9.95759 104.897 9.96778V9.09381C104.853 9.0877 104.79 9.08261 104.711 9.07853C104.634 9.07446 104.566 9.07242 104.509 9.07242C104.234 9.07242 103.988 9.14576 103.77 9.29244C103.554 9.43708 103.403 9.63571 103.317 9.88833H103.269V9.14271H102.385ZM107.497 13.9312C107.057 13.9312 106.673 13.8303 106.345 13.6287C106.017 13.427 105.762 13.1448 105.581 12.7822C105.4 12.4196 105.309 11.9958 105.309 11.511C105.309 11.0241 105.4 10.5983 105.581 10.2336C105.762 9.86897 106.017 9.5858 106.345 9.38412C106.673 9.18243 107.057 9.08159 107.497 9.08159C107.937 9.08159 108.321 9.18243 108.649 9.38412C108.977 9.5858 109.232 9.86897 109.413 10.2336C109.594 10.5983 109.685 11.0241 109.685 11.511C109.685 11.9958 109.594 12.4196 109.413 12.7822C109.232 13.1448 108.977 13.427 108.649 13.6287C108.321 13.8303 107.937 13.9312 107.497 13.9312ZM107.5 13.1642C107.785 13.1642 108.022 13.0888 108.209 12.938C108.397 12.7873 108.535 12.5866 108.625 12.336C108.716 12.0855 108.762 11.8094 108.762 11.5079C108.762 11.2084 108.716 10.9334 108.625 10.6828C108.535 10.4302 108.397 10.2275 108.209 10.0747C108.022 9.92194 107.785 9.84555 107.5 9.84555C107.213 9.84555 106.975 9.92194 106.785 10.0747C106.598 10.2275 106.458 10.4302 106.366 10.6828C106.277 10.9334 106.232 11.2084 106.232 11.5079C106.232 11.8094 106.277 12.0855 106.366 12.336C106.458 12.5866 106.598 12.7873 106.785 12.938C106.975 13.0888 107.213 13.1642 107.5 13.1642ZM112.896 9.8761V9.14271H111.933V8.01816H111.02V9.14271H110.332V9.8761H111.02V12.6477C111.02 12.9309 111.084 13.1662 111.212 13.3536C111.341 13.5411 111.509 13.6796 111.716 13.7692C111.924 13.8589 112.148 13.9016 112.389 13.8976C112.535 13.8955 112.658 13.8833 112.755 13.8609C112.853 13.8405 112.929 13.8202 112.982 13.7998L112.816 13.045C112.786 13.0511 112.743 13.0593 112.688 13.0694C112.633 13.0796 112.569 13.0847 112.496 13.0847C112.396 13.0847 112.303 13.0694 112.218 13.0389C112.134 13.0063 112.066 12.9462 112.013 12.8586C111.96 12.769 111.933 12.6355 111.933 12.4583V9.8761H112.896ZM115.879 13.9312C115.417 13.9312 115.018 13.8324 114.684 13.6348C114.352 13.4351 114.096 13.155 113.914 12.7944C113.735 12.4318 113.645 12.007 113.645 11.5201C113.645 11.0394 113.735 10.6156 113.914 10.2489C114.096 9.88222 114.348 9.59599 114.672 9.39023C114.998 9.18447 115.379 9.08159 115.815 9.08159C116.08 9.08159 116.337 9.12539 116.585 9.21299C116.834 9.30059 117.057 9.4381 117.254 9.62553C117.452 9.81295 117.608 10.0564 117.722 10.3559C117.836 10.6533 117.893 11.0149 117.893 11.4407V11.7646H114.557C114.564 12.0507 114.619 12.2962 114.721 12.5011C114.833 12.7211 114.989 12.8891 115.189 13.0053C115.388 13.1194 115.621 13.1764 115.888 13.1764C116.062 13.1764 116.219 13.1519 116.362 13.1031C116.505 13.0521 116.628 12.9767 116.732 12.8769C116.836 12.7771 116.915 12.6538 116.97 12.5072L117.835 12.663C117.766 12.9177 117.641 13.1407 117.462 13.3322C117.285 13.5217 117.062 13.6694 116.793 13.7753C116.526 13.8792 116.221 13.9312 115.879 13.9312ZM114.709 10.5148C114.619 10.6899 114.569 10.8783 114.558 11.0801H116.998C116.998 10.8397 116.949 10.6268 116.851 10.4414C116.753 10.254 116.616 10.1063 116.438 9.99834C116.263 9.89037 116.057 9.83638 115.821 9.83638C115.564 9.83638 115.34 9.89953 115.149 10.0258C114.959 10.1501 114.813 10.3131 114.709 10.5148ZM119.71 13.6225C120.038 13.8283 120.43 13.9312 120.884 13.9312C121.255 13.9312 121.578 13.8629 121.853 13.7264C122.13 13.5899 122.351 13.4025 122.516 13.1642C122.681 12.9258 122.78 12.6549 122.812 12.3513H121.923C121.884 12.5204 121.816 12.6651 121.718 12.7852C121.622 12.9054 121.503 12.9981 121.361 13.0633C121.22 13.1265 121.063 13.1581 120.89 13.1581C120.631 13.1581 120.406 13.0898 120.215 12.9533C120.025 12.8168 119.879 12.6243 119.775 12.3758C119.671 12.1272 119.619 11.8318 119.619 11.4896C119.619 11.1555 119.672 10.8662 119.778 10.6217C119.884 10.3752 120.031 10.1858 120.221 10.0533C120.412 9.91889 120.635 9.85166 120.89 9.85166C121.181 9.85166 121.414 9.93111 121.587 10.09C121.762 10.2489 121.874 10.4384 121.923 10.6584H122.812C122.78 10.3426 122.677 10.0666 122.503 9.83027C122.332 9.59395 122.107 9.4106 121.828 9.28022C121.549 9.1478 121.231 9.08159 120.875 9.08159C120.433 9.08159 120.049 9.18447 119.723 9.39023C119.397 9.59599 119.144 9.88222 118.965 10.2489C118.786 10.6136 118.696 11.0343 118.696 11.511C118.696 11.9816 118.784 12.3992 118.959 12.7639C119.134 13.1285 119.384 13.4147 119.71 13.6225ZM124.703 11.0495V13.8365H123.789V7.57812H124.691V9.90666H124.749C124.859 9.65405 125.027 9.45338 125.253 9.30467C125.479 9.15595 125.774 9.08159 126.139 9.08159C126.461 9.08159 126.742 9.1478 126.983 9.28022C127.225 9.41264 127.412 9.61025 127.545 9.87305C127.679 10.1338 127.746 10.4598 127.746 10.8509V13.8365H126.833V10.9609C126.833 10.6166 126.744 10.3498 126.567 10.1603C126.39 9.9688 126.143 9.87305 125.827 9.87305C125.611 9.87305 125.418 9.91889 125.247 10.0106C125.078 10.1022 124.944 10.2367 124.847 10.4139C124.751 10.5891 124.703 10.801 124.703 11.0495ZM91.1981 17.9923V24.2507H93.5969C94.0818 24.2507 94.48 24.1773 94.7917 24.0306C95.1034 23.8819 95.3336 23.6812 95.4823 23.4286C95.6331 23.174 95.7085 22.8867 95.7085 22.5669C95.7085 22.243 95.6433 21.968 95.5129 21.7418C95.3825 21.5157 95.2175 21.3415 95.0179 21.2193C94.8203 21.095 94.6175 21.0278 94.4098 21.0176V20.9565C94.6012 20.9076 94.7765 20.8302 94.9354 20.7242C95.0963 20.6163 95.2246 20.4737 95.3204 20.2964C95.4161 20.1171 95.464 19.8971 95.464 19.6364C95.464 19.3267 95.3917 19.0486 95.247 18.8021C95.1024 18.5536 94.8844 18.357 94.5931 18.2123C94.3018 18.0657 93.9341 17.9923 93.49 17.9923H91.1981ZM93.5052 23.4409H92.1423V21.4362H93.5388C93.7915 21.4362 94.0094 21.4851 94.1928 21.5829C94.3782 21.6807 94.5208 21.8121 94.6206 21.9771C94.7204 22.1421 94.7703 22.3234 94.7703 22.5211C94.7703 22.7839 94.6725 23.0029 94.477 23.1781C94.2814 23.3533 93.9575 23.4409 93.5052 23.4409ZM93.4074 20.6998H92.1423V18.796H93.4319C93.8067 18.796 94.0848 18.8836 94.2661 19.0588C94.4474 19.234 94.5381 19.451 94.5381 19.7097C94.5381 19.9114 94.4872 20.0866 94.3853 20.2353C94.2855 20.382 94.15 20.4961 93.9789 20.5776C93.8098 20.659 93.6193 20.6998 93.4074 20.6998ZM99.7284 22.3041V19.5569H100.645V24.2507H99.7467V23.4378H99.6978C99.5899 23.6884 99.4167 23.8972 99.1784 24.0642C98.942 24.2293 98.6477 24.3118 98.2952 24.3118C97.9937 24.3118 97.7268 24.2456 97.4946 24.1131C97.2644 23.9787 97.0831 23.7801 96.9507 23.5173C96.8203 23.2545 96.7551 22.9295 96.7551 22.5424V19.5569H97.6688V22.4324C97.6688 22.7523 97.7574 23.0069 97.9346 23.1964C98.1119 23.3859 98.3421 23.4806 98.6253 23.4806C98.7964 23.4806 98.9665 23.4378 99.1356 23.3522C99.3067 23.2667 99.4483 23.1373 99.5603 22.9642C99.6744 22.791 99.7305 22.571 99.7284 22.3041ZM104.562 20.8495L105.39 20.7028C105.296 20.3361 105.104 20.0438 104.813 19.8258C104.521 19.6058 104.122 19.4958 103.615 19.4958C103.262 19.4958 102.95 19.5549 102.677 19.673C102.404 19.7892 102.19 19.9511 102.035 20.1589C101.88 20.3667 101.803 20.6091 101.803 20.8862C101.803 21.2203 101.906 21.4963 102.114 21.7143C102.324 21.9323 102.648 22.0912 103.086 22.191L103.881 22.3652C104.105 22.4161 104.271 22.4915 104.379 22.5913C104.489 22.6912 104.544 22.8144 104.544 22.9611C104.544 23.1424 104.454 23.2962 104.275 23.4225C104.095 23.5468 103.856 23.6089 103.557 23.6089C103.282 23.6089 103.058 23.5509 102.887 23.4347C102.716 23.3166 102.603 23.1424 102.548 22.9122L101.665 23.0467C101.74 23.4622 101.944 23.7831 102.276 24.0092C102.608 24.2333 103.037 24.3454 103.563 24.3454C103.942 24.3454 104.275 24.2832 104.562 24.159C104.851 24.0347 105.076 23.8636 105.237 23.6456C105.4 23.4256 105.482 23.175 105.482 22.8939C105.482 22.5618 105.376 22.2919 105.164 22.0841C104.952 21.8763 104.63 21.7225 104.198 21.6226L103.453 21.4515C103.194 21.3904 103.007 21.312 102.89 21.2162C102.774 21.1205 102.716 20.9942 102.716 20.8373C102.716 20.656 102.803 20.5083 102.976 20.3942C103.149 20.2781 103.365 20.22 103.624 20.22C103.813 20.22 103.971 20.2506 104.097 20.3117C104.224 20.3728 104.324 20.4512 104.397 20.547C104.472 20.6427 104.527 20.7436 104.562 20.8495ZM106.486 24.2507V19.5569H107.4V24.2507H106.486ZM106.948 18.8327C106.789 18.8327 106.652 18.7797 106.538 18.6738C106.426 18.5658 106.37 18.4375 106.37 18.2887C106.37 18.138 106.426 18.0096 106.538 17.9037C106.652 17.7957 106.789 17.7417 106.948 17.7417C107.107 17.7417 107.242 17.7957 107.354 17.9037C107.468 18.0096 107.525 18.138 107.525 18.2887C107.525 18.4375 107.468 18.5658 107.354 18.6738C107.242 18.7797 107.107 18.8327 106.948 18.8327ZM109.543 24.2507V21.4637C109.543 21.2152 109.59 21.0033 109.684 20.8281C109.779 20.6509 109.909 20.5164 110.072 20.4248C110.237 20.3331 110.425 20.2873 110.637 20.2873C110.947 20.2873 111.19 20.384 111.367 20.5776C111.545 20.7691 111.633 21.0349 111.633 21.3751V24.2507H112.547V21.2651C112.547 20.878 112.481 20.5531 112.348 20.2903C112.216 20.0275 112.029 19.8299 111.789 19.6975C111.549 19.563 111.268 19.4958 110.949 19.4958C110.596 19.4958 110.304 19.5712 110.072 19.7219C109.841 19.8727 109.672 20.0723 109.564 20.3209H109.506V19.5569H108.629V24.2507H109.543ZM115.795 24.3454C115.333 24.3454 114.934 24.2466 114.6 24.049C114.268 23.8493 114.012 23.5692 113.83 23.2086C113.651 22.846 113.561 22.4212 113.561 21.9343C113.561 21.4536 113.651 21.0298 113.83 20.6631C114.012 20.2964 114.264 20.0102 114.588 19.8044C114.914 19.5987 115.295 19.4958 115.731 19.4958C115.996 19.4958 116.253 19.5396 116.501 19.6272C116.75 19.7148 116.973 19.8523 117.17 20.0397C117.368 20.2272 117.524 20.4706 117.638 20.7701C117.752 21.0675 117.809 21.4291 117.809 21.8549V22.1788H114.473C114.48 22.4649 114.535 22.7104 114.637 22.9153C114.749 23.1353 114.905 23.3033 115.105 23.4195C115.304 23.5336 115.537 23.5906 115.804 23.5906C115.978 23.5906 116.135 23.5661 116.278 23.5173C116.421 23.4663 116.544 23.3909 116.648 23.2911C116.752 23.1913 116.831 23.068 116.886 22.9214L117.751 23.0772C117.682 23.3319 117.557 23.5549 117.378 23.7464C117.201 23.9359 116.978 24.0836 116.709 24.1895C116.442 24.2934 116.137 24.3454 115.795 24.3454ZM114.625 20.929C114.535 21.1041 114.485 21.2925 114.474 21.4943H116.914C116.914 21.2539 116.865 21.041 116.767 20.8556C116.669 20.6682 116.532 20.5205 116.354 20.4125C116.179 20.3046 115.973 20.2506 115.737 20.2506C115.48 20.2506 115.256 20.3137 115.065 20.44C114.875 20.5643 114.729 20.7273 114.625 20.929ZM121.512 20.8495L122.34 20.7028C122.246 20.3361 122.054 20.0438 121.762 19.8258C121.471 19.6058 121.072 19.4958 120.565 19.4958C120.212 19.4958 119.899 19.5549 119.626 19.673C119.353 19.7892 119.14 19.9511 118.985 20.1589C118.83 20.3667 118.752 20.6091 118.752 20.8862C118.752 21.2203 118.856 21.4963 119.064 21.7143C119.274 21.9323 119.598 22.0912 120.036 22.191L120.83 22.3652C121.054 22.4161 121.221 22.4915 121.328 22.5913C121.439 22.6912 121.494 22.8144 121.494 22.9611C121.494 23.1424 121.404 23.2962 121.225 23.4225C121.045 23.5468 120.806 23.6089 120.506 23.6089C120.231 23.6089 120.008 23.5509 119.837 23.4347C119.666 23.3166 119.553 23.1424 119.498 22.9122L118.615 23.0467C118.69 23.4622 118.894 23.7831 119.226 24.0092C119.558 24.2333 119.987 24.3454 120.513 24.3454C120.892 24.3454 121.225 24.2832 121.512 24.159C121.801 24.0347 122.026 23.8636 122.187 23.6456C122.35 23.4256 122.432 23.175 122.432 22.8939C122.432 22.5618 122.326 22.2919 122.114 22.0841C121.902 21.8763 121.58 21.7225 121.148 21.6226L120.403 21.4515C120.144 21.3904 119.956 21.312 119.84 21.2162C119.724 21.1205 119.666 20.9942 119.666 20.8373C119.666 20.656 119.753 20.5083 119.926 20.3942C120.099 20.2781 120.315 20.22 120.574 20.22C120.763 20.22 120.921 20.2506 121.047 20.3117C121.174 20.3728 121.273 20.4512 121.347 20.547C121.422 20.6427 121.477 20.7436 121.512 20.8495ZM126.954 20.7028L126.125 20.8495C126.091 20.7436 126.036 20.6427 125.96 20.547C125.887 20.4512 125.787 20.3728 125.661 20.3117C125.535 20.2506 125.377 20.22 125.187 20.22C124.929 20.22 124.713 20.2781 124.539 20.3942C124.366 20.5083 124.28 20.656 124.28 20.8373C124.28 20.9942 124.338 21.1205 124.454 21.2162C124.57 21.312 124.757 21.3904 125.016 21.4515L125.762 21.6226C126.194 21.7225 126.515 21.8763 126.727 22.0841C126.939 22.2919 127.045 22.5618 127.045 22.8939C127.045 23.175 126.964 23.4256 126.801 23.6456C126.64 23.8636 126.415 24.0347 126.125 24.159C125.838 24.2832 125.505 24.3454 125.126 24.3454C124.601 24.3454 124.172 24.2333 123.84 24.0092C123.508 23.7831 123.304 23.4622 123.228 23.0467L124.112 22.9122C124.167 23.1424 124.28 23.3166 124.451 23.4347C124.622 23.5509 124.845 23.6089 125.12 23.6089C125.419 23.6089 125.659 23.5468 125.838 23.4225C126.017 23.2962 126.107 23.1424 126.107 22.9611C126.107 22.8144 126.052 22.6912 125.942 22.5913C125.834 22.4915 125.668 22.4161 125.444 22.3652L124.649 22.191C124.211 22.0912 123.887 21.9323 123.678 21.7143C123.47 21.4963 123.366 21.2203 123.366 20.8862C123.366 20.6091 123.443 20.3667 123.598 20.1589C123.753 19.9511 123.967 19.7892 124.24 19.673C124.513 19.5549 124.826 19.4958 125.178 19.4958C125.685 19.4958 126.085 19.6058 126.376 19.8258C126.667 20.0438 126.86 20.3361 126.954 20.7028ZM13.5058 0.176751C14.1195 0.111043 14.7228 0.0664727 15.3077 0.0385252C15.8157 0.0142524 16.3098 0.00251991 16.7848 0.0003672C16.8941 -0.000128138 17.0023 -0.000116624 17.1096 0.000367186V6.89722C17.1096 15.1627 11.8309 16.5622 6.42399 17.9957C5.47875 18.2463 4.52958 18.4979 3.60402 18.7875C2.99032 18.9794 2.38699 19.1881 1.80206 19.4242C1.17722 19.6763 0.573373 19.9598 0.000297339 20.2876L0.000233448 21.9863C1.10452 21.3546 2.32308 20.8876 3.58594 20.4918V25.8565H0V17.1963H9.72466e-05L0.000151193 17.8962L0.000279635 19.7892C0.000347203 18.7337 0.00025359 17.5041 0.000156868 16.2718L0.00015103 16.1975L0 13.3908C0 3.6803 7.28588 0.842747 13.5058 0.176751ZM7.82757 5.46251C9.48572 4.55661 11.4887 4.05218 13.5058 3.80432L13.5058 6.89722C13.5058 9.2672 12.9781 10.535 12.4367 11.2837C11.8794 12.0543 11.0207 12.6734 9.643 13.2381C8.44784 13.7281 7.14912 14.0733 5.57753 14.4911L5.57751 14.4911L5.57616 14.4915L5.5761 14.4915C5.22913 14.5837 4.86887 14.6795 4.49348 14.7812C4.20441 14.8595 3.9072 14.9411 3.60378 15.0274L3.60372 13.3908C3.60372 11.0276 4.13123 9.39216 4.83601 8.22735C5.54413 7.05701 6.55508 6.15771 7.82757 5.46251ZM32.8324 5.9933H36.435V18.9862C36.435 20.4104 36.0984 21.6631 35.4251 22.7442C34.7583 23.8254 33.8196 24.6702 32.609 25.2787C31.3984 25.8808 29.9839 26.1818 28.3654 26.1818C26.7405 26.1818 25.3228 25.8808 24.1122 25.2787C22.9016 24.6702 21.9629 23.8254 21.2961 22.7442C20.6293 21.6631 20.2959 20.4104 20.2959 18.9862V5.9933H23.8985V18.6852C23.8985 19.5138 24.0798 20.2518 24.4423 20.8992C24.8113 21.5466 25.3292 22.0548 25.996 22.4238C26.6628 22.7863 27.4526 22.9676 28.3654 22.9676C29.2782 22.9676 30.0681 22.7863 30.7348 22.4238C31.4081 22.0548 31.926 21.5466 32.2886 20.8992C32.6511 20.2518 32.8324 19.5138 32.8324 18.6852V5.9933ZM39.5959 25.8808V5.9933H47.0537C48.5816 5.9933 49.8634 6.25873 50.8992 6.78958C51.9414 7.32043 52.728 8.06491 53.2589 9.02303C53.7962 9.97468 54.0648 11.0849 54.0648 12.3538C54.0648 13.6291 53.7929 14.7362 53.2491 15.6749C52.7118 16.6071 51.9188 17.3289 50.87 17.8403C50.7472 17.8995 50.6211 17.9552 50.4916 18.0074L54.7931 25.8808H50.7729L46.8646 18.5978H43.1986V25.8808H39.5959ZM46.5196 15.6069H43.1986V9.00361H46.5002C47.4001 9.00361 48.1349 9.13633 48.7046 9.40175C49.2742 9.6607 49.6983 10.0427 49.9767 10.5476C50.255 11.0461 50.3942 11.6482 50.3942 12.3538C50.3942 13.0594 50.255 13.655 49.9767 14.1406C49.7048 14.6196 49.284 14.9854 48.7143 15.2379C48.1446 15.4839 47.413 15.6069 46.5196 15.6069ZM56.0895 25.8808H59.935L61.5796 20.9769H69.0564L70.7041 25.8808H74.5495L67.5384 5.9933H63.0909L56.0895 25.8808ZM68.0841 18.0831L65.3924 10.0718H65.237L62.5502 18.0831H68.0841Z" fill="#204424"/>
</svg>
